<?xml version="1.0" encoding="UTF-8"?>
<!DOCTYPE svg PUBLIC "-//W3C//DTD SVG 1.1//EN" "http://www.w3.org/Graphics/SVG/1.1/DTD/svg11.dtd">
<!-- Creator: CorelDRAW X7 -->
<svg xmlns="http://www.w3.org/2000/svg" xml:space="preserve" width="162.56mm" height="91.44mm" version="1.1" style="shape-rendering:geometricPrecision; text-rendering:geometricPrecision; image-rendering:optimizeQuality; fill-rule:evenodd; clip-rule:evenodd"
viewBox="0 0 16256 9144"
 xmlns:xlink="http://www.w3.org/1999/xlink">
 <defs>
  <style type="text/css">
   <![CDATA[
    .str0 {stroke:#2B2A29;stroke-width:20}
    .fil0 {fill:none}
    .fil3 {fill:none;fill-rule:nonzero}
    .fil1 {fill:#FEFEFE}
    .fil7 {fill:#EF7F1A}
    .fil8 {fill:#138D44}
    .fil9 {fill:#2A9443}
    .fil6 {fill:white}
    .fil5 {fill:#EF7F1A;fill-rule:nonzero}
    .fil4 {fill:#138D44;fill-rule:nonzero}
    .fil2 {fill:#FEFEFE;fill-opacity:0.749020}
   ]]>
  </style>
    <clipPath id="id0">
     <path d="M5 5l16256 0 0 9144 -16256 0 0 -9144z"/>
    </clipPath>
     <mask id="id1">
  <linearGradient id="id2" gradientUnits="userSpaceOnUse" x1="7784.74" y1="4180.54" x2="8481.04" y2="4974.06">
   <stop offset="0" style="stop-opacity:1; stop-color:white"/>
   <stop offset="0.768627" style="stop-opacity:0.501961; stop-color:white"/>
   <stop offset="1" style="stop-opacity:0; stop-color:white"/>
  </linearGradient>
      <rect style="fill:url(#id2)" x="5" y="5" width="16256" height="9144"/>
     </mask>
    <clipPath id="id3">
     <path d="M5 5l16256 0 0 9144 -16256 0 0 -9144z"/>
    </clipPath>
     <clipPath id="id4">
      <path d="M7993 5l8268 0 0 9144 -8268 0 0 -9144z"/>
     </clipPath>
     <clipPath id="id5">
      <path d="M5 5l16256 0 0 9144 -16256 0 0 -9144z"/>
     </clipPath>
     <clipPath id="id6">
      <path d="M10961 5l5300 0 0 3943 -5300 0 0 -3943z"/>
     </clipPath>
     <clipPath id="id7">
      <path d="M5 5l16256 0 0 9144 -16256 0 0 -9144z"/>
     </clipPath>
     <clipPath id="id8">
      <path d="M8132 5l0 9144 -8127 0 0 -9144 8127 0z"/>
     </clipPath>
     <clipPath id="id9">
      <path d="M5 5l16256 0 0 9144 -16256 0 0 -9144z"/>
     </clipPath>
 </defs>
 <g id="Layer_x0020_1">
  <metadata id="CorelCorpID_0Corel-Layer"/>
  <g id="_2611210552528">
   <g style="clip-path:url(#id0)">
    <polygon class="fil0" style="mask:url(#id1)" points="5,5 16261,5 16261,9149 5,9149 "/>
   </g>
   <g style="clip-path:url(#id3)">
    <g>
    </g>
    <g style="clip-path:url(#id4)">
     <image x="7993" y="-114" width="8268" height="10378" xlink:href="pict1_Images\pict1_ImgID1.png"/>
    </g>
    <g style="clip-path:url(#id5)">
    </g>
    <g style="clip-path:url(#id6)">
     <image transform="matrix(0.110869 0.0327348 -0.0327348 0.110869 11901.9 -886.674)" x="0" y="0" width="50317" height="28753" xlink:href="pict1_Images\pict1_ImgID2.png"/>
    </g>
    <g style="clip-path:url(#id7)">
    </g>
    <g style="clip-path:url(#id8)">
     <image x="4" y="-266" width="8128" height="10606" xlink:href="pict1_Images\pict1_ImgID3.png"/>
    </g>
    <g style="clip-path:url(#id9)">
     <circle class="fil1" cx="1373" cy="1433" r="1998"/>
     <polygon class="fil2" points="7772,-948 8297,-948 8297,10482 7772,10482 "/>
    </g>
   </g>
   <polygon class="fil0 str0" points="5,5 16261,5 16261,9149 5,9149 "/>
   <g>
    <path class="fil3" d="M2108 2189l0 51c0,4 -3,7 -7,7 -4,0 -8,-3 -8,-7l0 0 0 -51 -46 0 0 55c0,19 12,35 30,42l0 55 44 0 0 -54c19,-7 32,-24 32,-43l0 -55 -45 0z"/>
    <path class="fil3" d="M1870 2232c7,-5 36,-4 36,-4l0 -40c0,0 -96,-7 -96,76 0,76 96,76 96,76l0 -44c0,0 -29,1 -36,-4 -9,-5 -9,-11 -9,-11l45 0 0 -38 -45 0c0,0 0,-6 9,-11z"/>
    <path class="fil3" d="M1808 2293l0 0 -23 0c-1,0 -5,-1 -8,-4 -4,-2 -3,-9 -3,-9l0 -95 -3 0 -43 0 -2 0 0 111c0,0 0,14 12,28 10,13 25,14 25,14l2 0 43 0 2 0 0 -45 -2 0z"/>
    <path class="fil3" d="M1720 2295l0 0 -22 0c-1,0 -6,-1 -9,-4 -3,-2 -3,-9 -3,-9l0 -95 -2 0 -43 0 -2 0 0 111c0,0 -1,14 11,28 11,13 25,14 25,14l2 0 43 0 3 0 0 -45 -3 0z"/>
    <path class="fil3" d="M1493 2244l-14 0 -36 0 -30 0 0 37 31 0c-6,8 -14,13 -24,13 -17,0 -30,-14 -30,-31 0,-17 13,-31 30,-31 9,0 17,4 23,11l33 -33c-14,-16 -34,-26 -56,-26 -42,0 -76,35 -76,78 0,43 34,78 76,78 42,0 75,-35 75,-78 0,-6 0,-12 -2,-18z"/>
    <path class="fil3" d="M1565 2189c-31,0 -55,24 -55,54l0 99 44 0 0 -95c0,-6 5,-11 11,-11 7,0 12,5 12,11l0 9 -19 0 0 37 19 0 0 49 43 0 0 -99c0,-30 -25,-54 -55,-54z"/>
    <path class="fil3" d="M1114 1968c0,-109 -98,-197 -218,-197 -121,0 -218,88 -218,197 0,110 97,198 218,198 12,0 24,-1 36,-3l0 -147c-9,5 -21,9 -33,9 -34,0 -61,-25 -61,-55 0,-30 27,-55 61,-55 33,0 60,25 60,55 0,1 0,2 0,4l0 191 -1 0 0 0 156 0 0 -191 0 0c0,-2 0,-4 0,-6z"/>
    <path class="fil3" d="M424 1770c-118,0 -213,84 -218,190l0 0 0 381 159 0 0 -177 0 0 0 -192 0 0c0,-1 0,-2 0,-3 0,-30 27,-55 61,-55 33,0 60,25 60,55 0,30 -27,55 -60,55 -14,0 -26,-4 -36,-11l0 149c11,2 23,3 34,3 121,0 218,-89 218,-198 0,-109 -97,-197 -218,-197z"/>
    <path class="fil3" d="M1383 1771c-118,0 -214,85 -218,190l-1 0 0 382 160 0 0 -178 -1 0 0 -192 1 0c0,-1 -1,-2 -1,-3 0,-30 28,-54 61,-54 33,0 61,24 61,54 0,31 -28,55 -61,55 -13,0 -25,-4 -35,-10l0 149c11,1 22,2 34,2 120,0 218,-88 218,-197 0,-110 -98,-198 -218,-198z"/>
    <path class="fil3" d="M2070 1968c0,-109 -98,-197 -218,-197 -121,0 -218,88 -218,197 0,110 97,198 218,198 12,0 24,-1 36,-3l0 -147c-10,5 -21,9 -33,9 -34,0 -61,-25 -61,-55 0,-30 27,-55 61,-55 33,0 60,25 60,55 0,1 0,2 0,4l0 191 -1 0 0 0 156 0 0 -191 0 0c0,-2 0,-4 0,-6z"/>
    <path class="fil3" d="M2966 1968c0,-109 -98,-197 -218,-197 -120,0 -218,88 -218,197 0,110 98,198 218,198 12,0 24,-1 36,-3l0 -147c-9,5 -21,9 -33,9 -33,0 -60,-25 -60,-55 0,-30 27,-55 60,-55 34,0 61,25 61,55 0,1 -1,2 -1,4l0 191 -1 0 0 0 156 0 0 -191 0 0c0,-2 0,-4 0,-6z"/>
    <path class="fil3" d="M2170 2331l0 -125c21,8 39,12 54,12 50,0 82,-26 97,-78 -27,15 -53,22 -79,22 -38,0 -69,-13 -93,-39 -25,-27 -37,-60 -37,-101l0 -240 153 0 0 205c0,23 10,34 30,34 19,0 29,-13 29,-38l0 -201 153 0 0 340c0,64 -19,115 -57,154 -46,47 -101,70 -165,70 -29,0 -57,-5 -85,-15z"/>
    <path class="fil3" d="M1493 2244l-14 0 -36 0 -30 0 0 37 31 0c-6,8 -14,13 -24,13 -17,0 -30,-14 -30,-31 0,-17 13,-31 30,-31 9,0 17,4 23,11l33 -33c-14,-16 -34,-26 -56,-26 -42,0 -76,35 -76,78 0,43 34,78 76,78 42,0 75,-35 75,-78 0,-6 0,-12 -2,-18z"/>
    <path class="fil3" d="M1870 2232c7,-5 36,-4 36,-4l0 -40c0,0 -96,-7 -96,76 0,76 96,76 96,76l0 -44c0,0 -29,1 -36,-4 -9,-5 -9,-11 -9,-11l45 0 0 -38 -45 0c0,0 0,-6 9,-11z"/>
    <path class="fil3" d="M2108 2189l0 51c0,4 -3,7 -7,7 -4,0 -8,-3 -8,-7l0 0 0 -51 -46 0 0 55c0,19 12,35 30,42l0 55 44 0 0 -54c19,-7 32,-24 32,-43l0 -55 -45 0z"/>
    <g>
     <path class="fil4" d="M2104 2187l0 52c0,4 -3,7 -7,7 -4,0 -7,-3 -7,-7l0 0 0 -52 -46 0 0 56c0,18 12,34 29,42l0 55 44 0 0 -54c19,-7 32,-24 32,-43l0 -56 -45 0z"/>
     <path class="fil4" d="M1866 2230c8,-4 36,-3 36,-3l0 -41c0,0 -95,-7 -95,77 0,75 95,75 95,75l0 -44c0,0 -28,1 -36,-3 -9,-5 -9,-11 -9,-11l45 0 0 -39 -45 0c0,0 0,-6 9,-11z"/>
     <path class="fil4" d="M1804 2291l0 0 -22 0c-1,0 -6,0 -9,-3 -3,-3 -3,-9 -3,-9l0 -95 -2 0 -43 0 -2 0 0 111c0,0 0,14 11,27 11,13 25,15 25,15l2 0 43 0 3 0 0 -46 -3 0z"/>
     <path class="fil4" d="M1717 2293l0 0 -23 0c-1,0 -5,0 -8,-3 -4,-3 -4,-9 -4,-9l0 -95 -2 0 -43 0 -2 0 0 111c0,0 0,14 11,27 11,13 25,15 25,15l3 0 43 0 2 0 0 -46 -2 0z"/>
     <path class="fil4" d="M1490 2242l-14 0 -36 0 -30 0 0 38 30 0c-5,7 -14,12 -24,12 -16,0 -30,-14 -30,-31 0,-17 14,-31 30,-31 9,0 18,5 23,11l34 -32c-14,-16 -34,-27 -57,-27 -42,0 -75,35 -75,79 0,43 33,78 75,78 42,0 76,-35 76,-78 0,-7 -1,-13 -2,-19z"/>
     <path class="fil4" d="M1963 2280l0 64 -45 0 0 -110 0 0c0,-26 24,-47 55,-47 30,0 55,21 55,47l0 0c0,14 -7,26 -18,34l0 0c13,2 17,10 17,14l0 2 0 0 0 60 -42 0 0 -46c-2,-5 -6,-9 -16,-9l0 -5 0 -3 0 -1 0 -2 0 -29c1,0 2,0 4,0 5,0 10,-4 10,-9 0,-6 -5,-10 -10,-10 -6,0 -10,4 -10,10l0 40zm0 -40l0 0 0 0z"/>
     <path class="fil4" d="M1561 2187c-30,0 -55,25 -55,55l0 99 44 0 0 -95c0,-7 6,-12 12,-12 6,0 11,5 11,12l0 9 -19 0 0 37 19 0 0 49 43 0 0 -99c0,-30 -24,-55 -55,-55z"/>
    </g>
    <g>
     <path class="fil5" d="M1114 1968c0,-109 -98,-197 -218,-197 -121,0 -218,88 -218,197 0,110 97,198 218,198 12,0 24,-1 36,-3l0 -147c-9,5 -21,9 -33,9 -34,0 -61,-25 -61,-55 0,-30 27,-55 61,-55 33,0 60,25 60,55 0,1 0,2 0,4l0 191 -1 0 0 0 156 0 0 -191 0 0c0,-2 0,-4 0,-6z"/>
     <path class="fil5" d="M424 1770c-118,0 -213,84 -218,190l0 0 0 381 159 0 0 -177 0 0 0 -192 0 0c0,-1 0,-2 0,-3 0,-30 27,-55 61,-55 33,0 60,25 60,55 0,30 -27,55 -60,55 -14,0 -26,-4 -36,-11l0 149c11,2 23,3 34,3 121,0 218,-89 218,-198 0,-109 -97,-197 -218,-197z"/>
     <path class="fil5" d="M2070 1968c0,-109 -98,-197 -218,-197 -121,0 -218,88 -218,197 0,110 97,198 218,198 12,0 24,-1 36,-3l0 -147c-10,5 -21,9 -33,9 -34,0 -61,-25 -61,-55 0,-30 27,-55 61,-55 33,0 60,25 60,55 0,1 0,2 0,4l0 191 -1 0 0 0 156 0 0 -191 0 0c0,-2 0,-4 0,-6z"/>
     <path class="fil5" d="M2966 1968c0,-109 -98,-197 -218,-197 -120,0 -218,88 -218,197 0,110 98,198 218,198 12,0 24,-1 36,-3l0 -147c-9,5 -21,9 -33,9 -33,0 -60,-25 -60,-55 0,-30 27,-55 60,-55 34,0 61,25 61,55 0,1 -1,2 -1,4l0 191 -1 0 0 0 156 0 0 -191 0 0c0,-2 0,-4 0,-6z"/>
     <path class="fil5" d="M2170 2331l0 -125c21,8 39,12 54,12 50,0 82,-26 97,-78 -27,15 -53,22 -79,22 -38,0 -69,-13 -93,-39 -25,-27 -37,-60 -37,-101l0 -240 153 0 0 205c0,23 10,34 30,34 19,0 29,-13 29,-38l0 -201 153 0 0 340c0,64 -19,115 -57,154 -46,47 -101,70 -165,70 -29,0 -57,-5 -85,-15z"/>
     <path class="fil5" d="M1383 1771c-118,0 -214,85 -218,190l-1 0 0 382 160 0 0 -178 -1 0 0 -192 1 0c0,-1 -1,-2 -1,-3 0,-30 28,-54 61,-54 33,0 61,24 61,54 0,31 -28,55 -61,55 -13,0 -25,-4 -35,-10l0 149c11,1 22,2 34,2 120,0 218,-88 218,-197 0,-110 -98,-198 -218,-198z"/>
    </g>
    <g>
     <path class="fil4" d="M1814 1973c0,21 19,38 43,38 24,0 43,-17 43,-38 0,-21 -19,-38 -43,-38 -24,0 -43,17 -43,38z"/>
     <path class="fil4" d="M1343 1971c0,21 19,38 43,38 23,0 42,-17 42,-38 0,-21 -19,-38 -42,-38 -24,0 -43,17 -43,38z"/>
     <path class="fil4" d="M2709 1974c0,21 19,38 42,38 24,0 43,-17 43,-38 0,-3 0,-5 -1,-8 -3,13 -19,23 -39,24 -23,1 -42,-11 -43,-26 0,-1 0,-3 1,-4 -2,4 -3,9 -3,14z"/>
     <path class="fil4" d="M384 1972c0,21 19,38 43,38 24,0 43,-17 43,-38 0,-21 -19,-39 -43,-39 -24,0 -43,18 -43,39z"/>
     <path class="fil4" d="M1343 1972c0,21 19,38 43,38 23,0 42,-17 42,-38 0,-21 -19,-39 -42,-39 -24,0 -43,18 -43,39z"/>
     <path class="fil4" d="M855 1974c0,21 19,38 43,38 24,0 43,-17 43,-38 0,-21 -19,-39 -43,-39 -24,0 -43,18 -43,39z"/>
     <path class="fil4" d="M1814 1972c0,22 19,39 43,39 23,0 42,-17 42,-39 0,-21 -19,-38 -42,-38 -24,0 -43,17 -43,38z"/>
    </g>
    <polygon class="fil3" points="1138,2188 1138,2341 1092,2341 1092,2281 1065,2282 1065,2341 1020,2341 1020,2188 1066,2188 1066,2237 1092,2237 1092,2188 "/>
    <path class="fil3" d="M763 2232c8,-5 37,-4 37,-4l0 -40c0,0 -96,-7 -96,76 0,76 96,76 96,76l0 -44c0,0 -29,1 -37,-4 -9,-5 -9,-11 -9,-11l46 0 0 -38 -46 0c0,0 0,-6 9,-11z"/>
    <polygon class="fil3" points="1138,2188 1138,2341 1092,2341 1092,2281 1065,2282 1065,2341 1020,2341 1020,2188 1066,2188 1066,2237 1092,2237 1092,2188 "/>
    <path class="fil3" d="M473 2250l0 41 -38 0 1 52 -46 0 0 -95c0,-18 -1,-34 10,-45 11,-12 31,-14 48,-14l26 0 0 44c-18,-1 -26,-1 -32,-1 -7,0 -6,2 -6,11l0 7 37 0z"/>
    <path class="fil3" d="M955 2190c-17,0 -34,1 -50,0 -10,0 -18,2 -26,7 -6,5 -12,10 -15,18 -2,5 -3,10 -2,16 2,37 47,48 46,60 0,7 -10,7 -10,7l-36 0 0 44 57 0c0,0 41,-5 41,-44 0,-19 -9,-29 -18,-36 -8,-6 -17,-10 -23,-19 -8,-11 6,-11 12,-11 2,0 24,0 24,0l0 -42z"/>
    <g>
     <polygon class="fil4" points="1138,2188 1138,2341 1092,2341 1092,2281 1065,2282 1065,2341 1020,2341 1020,2188 1066,2188 1066,2237 1092,2237 1092,2188 "/>
     <path class="fil4" d="M763 2232c8,-5 37,-4 37,-4l0 -40c0,0 -96,-7 -96,76 0,76 96,76 96,76l0 -44c0,0 -29,1 -37,-4 -9,-5 -9,-11 -9,-11l46 0 0 -38 -46 0c0,0 0,-6 9,-11z"/>
     <path class="fil4" d="M473 2250l0 41 -38 0 1 52 -46 0 0 -95c0,-18 -1,-34 10,-45 11,-12 31,-14 48,-14l26 0 0 44c-18,-1 -26,-1 -32,-1 -7,0 -6,2 -6,11l0 7 37 0z"/>
     <path class="fil4" d="M955 2190c-17,0 -34,1 -50,0 -10,0 -18,2 -26,7 -6,5 -12,10 -15,18 -2,5 -3,10 -2,16 2,37 47,48 46,60 0,7 -10,7 -10,7l-36 0 0 44 57 0c0,0 41,-5 41,-44 0,-19 -9,-29 -18,-36 -8,-6 -17,-10 -23,-19 -8,-11 6,-11 12,-11 2,0 24,0 24,0l0 -42z"/>
     <path class="fil4" d="M586 2280l0 64 -45 0 0 -110 0 0c0,-26 25,-47 55,-47 30,0 55,21 55,47l0 0c0,14 -7,26 -18,34l0 0c13,2 17,10 17,14l0 2 0 0 0 60 -42 0 0 -46c-2,-5 -6,-9 -16,-9l0 -5 0 -3 0 -1 0 -2 0 -29c1,0 3,0 4,0 5,0 10,-4 10,-9 0,-6 -5,-10 -10,-10 -6,0 -10,4 -10,10l0 40zm0 -40l0 0 0 0z"/>
    </g>
   </g>
   <g>
    <path class="fil6" d="M1215 1027c-12,-16 17,-77 45,-62 20,23 -7,26 13,46 31,32 95,53 141,54 43,0 74,-20 98,-41 64,-56 34,-60 49,-82 29,-5 50,40 40,68 -21,9 -10,-2 -31,-4 -37,66 -94,99 -173,94 -37,-2 -73,-18 -99,-34 -14,-8 -28,-20 -39,-30 -27,-25 -26,11 -44,-9zm303 -283c78,-23 97,138 26,164 -46,16 -72,-29 -74,-67 -3,-45 10,-86 48,-97zm-200 3c43,-15 68,34 71,68 4,39 -13,87 -47,96 -80,21 -104,-138 -24,-164zm74 -36c-15,8 -21,-9 -55,-8 -60,2 -76,50 -77,52 -20,18 -21,-22 -18,-36 18,-94 161,-46 150,-8zm222 4c-18,2 -21,-16 -43,-23 -32,-11 -73,-1 -98,26 -20,21 -21,-8 -12,-25 39,-78 163,-29 153,22zm-430 -136c3,133 -5,272 -6,405 -2,117 -11,235 6,348 3,18 1,25 11,38 4,-50 22,-218 55,-236 0,76 -8,281 3,345 7,-6 12,-11 21,-16 11,16 19,86 35,112l3 -3c0,0 1,-1 1,-1 8,-9 8,-12 19,-15 8,11 8,16 12,24l5 7c3,-47 20,-247 57,-270 2,99 -5,200 0,300 35,8 50,-4 73,-23 23,-21 23,-36 27,-76 3,-28 9,-181 14,-191 22,13 18,96 25,123 6,-4 2,3 7,-8l17 -81c11,-63 24,-122 33,-187 1,-12 7,-84 15,-93 31,56 12,228 5,302 -4,32 -11,64 -12,96 39,-15 64,-97 75,-144 38,-171 47,-434 8,-597 -15,-18 -72,-55 -99,-71 -34,-19 -78,-41 -117,-54 -60,-20 -225,-61 -293,-34z"/>
    <path class="fil7" d="M944 623c26,-4 39,10 41,35 -24,-1 -40,-11 -41,-35zm-25 -181c34,-3 44,14 115,22 119,13 256,-1 408,21 83,12 176,13 256,30 65,13 123,34 175,73 9,8 15,8 19,19 -11,12 -46,10 -69,20l20 13c21,11 53,30 56,55 -30,6 -54,-5 -82,-2 15,24 38,39 48,68 -30,6 -35,-7 -55,-12 4,19 31,43 19,81 -4,11 -12,24 -25,28 -13,4 -33,3 -45,-6 3,-40 43,-33 -8,-91 -63,-73 -152,-123 -243,-159 -57,-23 -146,-52 -211,-57 -46,-4 -133,7 -174,27 -20,11 -22,17 -37,33 -10,-5 -119,-108 -130,-119 -12,-12 -36,-26 -37,-44zm269 -112l78 8c10,-21 95,-1 119,-5 -14,-40 -52,-29 -66,-49 10,-10 20,-8 36,-8 -13,-28 -50,-21 -83,-24 -6,-23 20,-41 36,-45 23,-6 49,-4 73,-8 -4,-18 -36,-54 -33,-67 10,-35 106,-29 155,1 52,32 4,53 61,93 13,9 24,8 28,23 4,16 -4,30 8,44 30,36 101,-1 125,23 15,16 25,53 6,76 -30,7 -53,-3 -83,15 1,11 30,57 37,66 -2,5 6,4 -5,4 3,3 -2,-6 2,2 3,9 1,-3 -2,3l-554 -44c-30,1 -57,-1 -85,-3 -24,-1 -22,3 -35,-10 -33,-35 -119,-72 -161,-40 -1,24 29,42 56,70l166 154c11,9 28,21 31,35 -28,-4 -24,-34 -94,-54 -35,-11 -23,-8 -42,-33 -12,-17 -25,-27 -49,-18 -3,12 17,100 31,116 7,9 24,10 35,16 65,32 -36,117 54,329l52 99c8,13 10,24 27,24 5,-18 -11,-31 -28,-63 -115,-228 -46,-301 -59,-361 -3,-13 -14,-19 -20,-28 -8,-13 -3,-49 -37,-60 -28,-9 -33,-1 -39,-58 19,0 24,11 30,24 0,0 3,6 3,6 13,26 57,4 106,54 15,15 13,33 38,35 52,4 55,28 33,34 -11,3 -47,-1 -70,29 -33,43 -4,181 32,231 6,8 13,22 18,25 12,5 25,-4 3,-37 -20,-30 -35,-77 -43,-114 -15,-74 -7,-123 76,-119l1 42c-1,-6 5,-173 9,-180 2,-4 1,-5 8,-6 17,-3 7,-1 11,2 68,-27 233,14 293,34 39,13 83,35 117,54 27,16 84,53 99,71 8,3 30,20 33,31 3,9 7,46 8,58 2,22 6,105 10,118 109,-13 190,-79 99,102 -17,35 -57,88 -55,111 17,-1 21,-16 28,-29 23,-41 43,-75 60,-117 8,-18 30,-70 23,-93 -3,-8 -8,-9 -13,-16 -6,-9 -2,-26 -19,-38 -8,-5 -14,-5 -20,-13 4,-12 14,-16 30,-14 13,2 16,10 24,19 11,11 56,7 73,12 27,8 43,30 53,34 17,5 50,-11 56,27 -24,3 -15,-3 -36,7 -14,7 -18,-2 -29,-9 -24,-15 -82,3 -88,29 -19,89 -28,155 -85,232 -35,46 -96,78 -82,92 18,8 41,-22 50,-32 22,-22 22,-16 45,-44 56,-68 71,-144 86,-229 3,-18 0,-21 15,-30 29,-16 41,-13 66,1 20,13 18,3 31,-4 14,-7 23,1 39,-6 7,-32 -34,-41 -58,-45 -12,-3 -20,-15 -31,-23 -11,-7 -29,-11 -36,-17 -2,-35 78,-166 35,-248 -26,-52 -141,-85 -211,-100 0,-52 1,-104 2,-157 0,-61 -18,-78 -55,-106 -55,-42 -120,-98 -192,-126 -81,-30 -182,-53 -241,15 -18,20 -102,162 -120,200z"/>
    <path class="fil8" d="M1156 763c-8,118 -27,452 -15,556 13,122 57,220 135,300 36,38 42,37 81,65 22,16 22,16 53,9 21,-5 35,-10 54,-17 72,-26 121,-62 164,-124 92,-132 100,-307 111,-471 1,-22 1,-126 5,-136 -4,-13 -8,-96 -10,-118 -1,-12 -5,-49 -8,-58 -3,-11 -25,-28 -33,-31 39,163 30,426 -8,597 -11,47 -36,129 -75,144 1,-32 8,-64 12,-96 7,-74 26,-246 -5,-302 -8,9 -14,81 -15,93 -9,65 -22,124 -33,187l-17 81c-5,11 -1,4 -7,8 -7,-27 -3,-110 -25,-123 -5,10 -11,163 -14,191 -4,40 -4,55 -27,76 -23,19 -38,31 -73,23 -5,-100 2,-201 0,-300 -37,23 -54,223 -57,270l-5 -7c-4,-8 -4,-13 -12,-24 -11,3 -11,6 -19,15 0,0 -1,1 -1,1l-3 3c-16,-26 -24,-96 -35,-112 -9,5 -14,10 -21,16 -11,-64 -3,-269 -3,-345 -33,18 -51,186 -55,236 -10,-13 -8,-20 -11,-38 -17,-113 -8,-231 -6,-348 1,-133 9,-272 6,-405 -4,-3 6,-5 -11,-2 -7,1 -6,2 -8,6 -4,7 -10,174 -9,180z"/>
    <path class="fil6" d="M1034 464c-71,-8 -81,-25 -115,-22 1,18 25,32 37,44 11,11 120,114 130,119 15,-16 17,-22 37,-33 41,-20 128,-31 174,-27 65,5 154,34 211,57 91,36 180,86 243,159 51,58 11,51 8,91 12,9 32,10 45,6 13,-4 21,-17 25,-28 12,-38 -15,-62 -19,-81 20,5 25,18 55,12 -10,-29 -33,-44 -48,-68 28,-3 52,8 82,2 -3,-25 -35,-44 -56,-55l-20 -13c23,-10 58,-8 69,-20 -4,-11 -10,-11 -19,-19 -52,-39 -110,-60 -175,-73 -80,-17 -173,-18 -256,-30 -152,-22 -289,-8 -408,-21z"/>
    <path class="fil6" d="M1266 338c42,8 78,9 118,19 98,26 108,23 206,69 25,11 71,35 90,51 11,0 3,1 5,-4 -7,-9 -36,-55 -37,-66 30,-18 53,-8 83,-15 19,-23 9,-60 -6,-76 -24,-24 -95,13 -125,-23 -12,-14 -4,-28 -8,-44 -4,-15 -15,-14 -28,-23 -57,-40 -9,-61 -61,-93 -49,-30 -145,-36 -155,-1 -3,13 29,49 33,67 -24,4 -50,2 -73,8 -16,4 -42,22 -36,45 33,3 70,-4 83,24 -16,0 -26,-2 -36,8 14,20 52,9 66,49 -24,4 -109,-16 -119,5z"/>
    <path class="fil7" d="M1677 1627c5,-32 31,-58 50,-74 35,-31 103,-81 146,-99 25,-10 76,-21 77,20 -46,-5 -45,-7 -86,14 -108,54 -170,128 -187,139zm66 -318l1 15c21,8 123,-70 76,126 -4,16 -8,14 -20,22 -10,6 -18,13 -30,15 0,-26 8,-89 -1,-108 -31,-6 -64,47 -63,81 35,7 11,-30 39,-39 6,15 4,52 2,69 -6,41 -54,35 -94,129 -19,46 -13,82 35,92 33,7 91,-11 119,-24 54,-25 132,-94 158,-138 19,-31 30,-80 0,-108 -31,-30 -83,-8 -116,4 -2,-43 17,-81 -5,-126 -20,-38 -70,-29 -101,-10z"/>
    <path class="fil7" d="M1073 1653l-80 -142c-59,-102 -94,-104 -102,-119 40,-6 61,15 81,35 43,42 85,117 102,177 3,13 9,38 -1,49zm-78 -321l5 92c-13,-6 -49,-53 -88,-58 -50,-7 -69,37 -62,85 11,79 121,241 181,262 22,7 44,-4 54,-17 20,-28 8,-94 -3,-126 -10,-31 -12,-27 -7,-62 6,-47 5,-84 16,-132 39,-6 35,42 52,58 9,-9 -2,-66 -43,-85l7 -30 -19 -3c-7,30 -14,58 -18,91 -4,32 -6,69 -11,101 -17,-29 -32,-42 -36,-64 -9,-51 -19,-141 4,-188 25,-48 64,-3 67,-32 -31,-15 -66,-8 -81,15 -14,21 -18,63 -18,93z"/>
    <path class="fil9" d="M1126 438l554 44c3,-6 5,6 2,-3 -4,-8 1,1 -2,-2 -19,-16 -65,-40 -90,-51 -98,-46 -108,-43 -206,-69 -40,-10 -76,-11 -118,-19l-78 -8 -62 108z"/>
    <path class="fil7" d="M1414 1065c-46,-1 -110,-22 -141,-54 -20,-20 7,-23 -13,-46 -28,-15 -57,46 -45,62 18,20 17,-16 44,9 11,10 25,22 39,30 26,16 62,32 99,34 79,5 136,-28 173,-94 15,6 17,18 31,4 9,-23 -5,-59 -27,-67 -16,-6 -18,5 -18,19 -1,12 -3,26 -44,62 -24,21 -55,41 -98,41z"/>
    <path class="fil7" d="M1543 849c8,0 14,7 14,15 0,8 -6,15 -14,15 -8,0 -14,-7 -14,-15 0,-8 6,-15 14,-15zm-59 -6c-13,-89 81,-120 91,-18 -16,-9 -30,-18 -57,-12 -18,4 -26,19 -34,30zm34 -99c-38,11 -51,52 -48,97 2,38 28,83 74,67 71,-26 52,-187 -26,-164z"/>
    <path class="fil7" d="M1345 846c8,0 14,6 14,15 0,8 -6,14 -14,14 -8,0 -14,-6 -14,-14 0,-9 6,-15 14,-15zm-61 -3c-4,-32 8,-70 35,-78 33,-10 59,25 55,55 -35,-28 -84,20 -90,23zm34 -96c-80,26 -56,185 24,164 34,-9 51,-57 47,-96 -3,-34 -28,-83 -71,-68z"/>
    <path class="fil6" d="M1073 1653c10,-11 4,-36 1,-49 -17,-60 -59,-135 -102,-177 -20,-20 -41,-41 -81,-35 8,15 43,17 102,119l80 142z"/>
    <path class="fil6" d="M1677 1627c17,-11 79,-85 187,-139 41,-21 40,-19 86,-14 -1,-41 -52,-30 -77,-20 -43,18 -111,68 -146,99 -19,16 -45,42 -50,74z"/>
    <path class="fil7" d="M1392 711c11,-38 -132,-86 -150,8 -3,14 -2,54 18,36 1,-2 17,-50 77,-52 34,-1 40,16 55,8z"/>
    <path class="fil7" d="M1614 715c10,-51 -114,-100 -153,-22 -9,17 -8,46 12,25 25,-27 66,-37 98,-26 22,7 25,25 43,23z"/>
    <path class="fil6" d="M985 658c-2,-25 -15,-39 -41,-35 1,24 17,34 41,35z"/>
   </g>
  </g>
 </g>
</svg>
